HIERARCHY
ROOT Hips
{
	OFFSET 0.00000 0.00000 0.00000
	CHANNELS 6 Xposition Yposition Zposition Zrotation Yrotation Xrotation 
	JOINT LHipJoint
	{
		OFFSET 0 0 0
		CHANNELS 3 Zrotation Yrotation Xrotation
		JOINT LeftUpLeg
		{
			OFFSET 1.28858 -1.83292 1.03970
			CHANNELS 3 Zrotation Yrotation Xrotation
			JOINT LeftLeg
			{
				OFFSET 2.47846 -6.80952 0.00000
				CHANNELS 3 Zrotation Yrotation Xrotation
				JOINT LeftFoot
				{
					OFFSET 2.75274 -7.56311 0.00000
					CHANNELS 3 Zrotation Yrotation Xrotation
					JOINT LeftToeBase
					{
						OFFSET 0.12848 -0.35301 1.68223
						CHANNELS 3 Zrotation Yrotation Xrotation
						End Site
						{
							OFFSET 0.00000 -0.00000 0.87311
						}
					}
				}
			}
		}
	}
	JOINT RHipJoint
	{
		OFFSET 0 0 0
		CHANNELS 3 Zrotation Yrotation Xrotation
		JOINT RightUpLeg
		{
			OFFSET -1.31183 -1.83292 1.03970
			CHANNELS 3 Zrotation Yrotation Xrotation
			JOINT RightLeg
			{
				OFFSET -2.44740 -6.72417 0.00000
				CHANNELS 3 Zrotation Yrotation Xrotation
				JOINT RightFoot
				{
					OFFSET -2.67343 -7.34519 0.00000
					CHANNELS 3 Zrotation Yrotation Xrotation
					JOINT RightToeBase
					{
						OFFSET -0.16914 -0.46471 1.77626
						CHANNELS 3 Zrotation Yrotation Xrotation
						End Site
						{
							OFFSET -0.00000 -0.00000 0.92777
						}
					}
				}
			}
		}
	}
	JOINT LowerBack
	{
		OFFSET 0 0 0
		CHANNELS 3 Zrotation Yrotation Xrotation
		JOINT Spine
		{
			OFFSET 0.01249 2.14252 0.03842
			CHANNELS 3 Zrotation Yrotation Xrotation
			JOINT Spine1
			{
				OFFSET -0.02957 2.14199 -0.03751
				CHANNELS 3 Zrotation Yrotation Xrotation
				JOINT Neck
				{
					OFFSET 0 0 0
					CHANNELS 3 Zrotation Yrotation Xrotation
					JOINT Neck1
					{
						OFFSET -0.01678 1.65709 -0.05476
						CHANNELS 3 Zrotation Yrotation Xrotation
						JOINT Head
						{
							OFFSET 0.07912 1.58331 -0.11843
							CHANNELS 3 Zrotation Yrotation Xrotation
							End Site
							{
								OFFSET 0.03298 1.73940 -0.04271
							}
						}
					}
				}
				JOINT LeftShoulder
				{
					OFFSET 0 0 0
					CHANNELS 3 Zrotation Yrotation Xrotation
					JOINT LeftArm
					{
						OFFSET 3.39556 1.16496 0.08673
						CHANNELS 3 Zrotation Yrotation Xrotation
						JOINT LeftForeArm
						{
							OFFSET 5.23910 -0.00000 -0.00000
							CHANNELS 3 Zrotation Yrotation Xrotation
							JOINT LeftHand
							{
								OFFSET 3.31467 -0.00000 0.00000
								CHANNELS 3 Zrotation Yrotation Xrotation
								JOINT LeftFingerBase
								{
									OFFSET 0 0 0
									CHANNELS 3 Zrotation Yrotation Xrotation
									JOINT LeftHandIndex1
									{
										OFFSET 0.96590 -0.00000 0.00000
										CHANNELS 3 Zrotation Yrotation Xrotation
										End Site
										{
											OFFSET 0.77873 -0.00000 0.00000
										}
									}
								}
								JOINT LThumb
								{
									OFFSET 0 0 0
									CHANNELS 3 Zrotation Yrotation Xrotation
									End Site
									{
										OFFSET 0.79062 -0.00000 0.79062
									}
								}
							}
						}
					}
				}
				JOINT RightShoulder
				{
					OFFSET 0 0 0
					CHANNELS 3 Zrotation Yrotation Xrotation
					JOINT RightArm
					{
						OFFSET -3.27193 1.31331 0.33940
						CHANNELS 3 Zrotation Yrotation Xrotation
						JOINT RightForeArm
						{
							OFFSET -5.30252 -0.00000 0.00000
							CHANNELS 3 Zrotation Yrotation Xrotation
							JOINT RightHand
							{
								OFFSET -3.67875 -0.00000 0.00000
								CHANNELS 3 Zrotation Yrotation Xrotation
								JOINT RightFingerBase
								{
									OFFSET 0 0 0
									CHANNELS 3 Zrotation Yrotation Xrotation
									JOINT RightHandIndex1
									{
										OFFSET -0.59481 -0.00000 0.00000
										CHANNELS 3 Zrotation Yrotation Xrotation
										End Site
										{
											OFFSET -0.47955 -0.00000 0.00000
										}
									}
								}
								JOINT RThumb
								{
									OFFSET 0 0 0
									CHANNELS 3 Zrotation Yrotation Xrotation
									End Site
									{
										OFFSET -0.48687 -0.00000 0.48687
									}
								}
							}
						}
					}
				}
			}
		}
	}
}
MOTION
Frames: 12
Frame Time: .0083333
8.6269 18.3841 4.9416 0 0 0 0 0 0 -21 0 0 0 0 0 0 0 0 0 0 0 0 0 0 21 0 0 0 0 0 0 0 0 0 0 0 0 0 0 0 0 0 0 0 0 0 0 -16 0 0 21 0 0 11 0 0 0 -8 0 0 0 0 0 0 0 0 0 0 0 0 0 0 0 0 0 0 0 0 8 0 0 0 0 0 0 0 0 0 0 0 0 0 0 0 0 0
8.6269 18.3841 4.9416 -1.4532 -2.9721 3.3282 0.0000 0.0000 0.0000 -14.3588 1.8887 -3.9644 0.1481 2.4797 6.8334 0.1853 -5.4629 -8.0135 3.6227 11.6407 34.4725 0.0000 0.0000 0.0000 16.1960 -0.4878 -14.6484 -1.6644 -8.1290 23.1067 -1.0478 -5.3077 -21.9438 -0.0834 1.8631 -5.1276 -3.1310 -0.0247 -1.3368 -1.5061 0.1029 2.4547 0.2091 -0.0073 3.2727 -3.5379 -4.4349 2.5571 5.4052 -6.1649 4.6887 2.2809 -3.0853 1.3381 0.0000 0.0000 0.0000 -77.4329 -4.5795 35.5783 12.0566 -19.8894 -2.1215 -0.0000 0.0000 -12.6201 12.1459 -13.1793 -2.8092 -7.1250 0.0000 -0.0000 -10.4521 16.6499 7.1400 0.0000 0.0000 0.0000 84.3591 -6.4417 25.7396 -14.5584 23.5273 -3.0475 0.0000 0.0000 0.1070 -5.7569 -35.5476 3.3544 7.1250 -0.0000 -0.0000 33.4754 -62.5163 -15.1362
8.6271 18.3827 4.9477 -1.7135 -3.0214 3.3582 0.0000 0.0000 0.0000 -13.9936 1.8461 -3.9542 0.1478 2.4772 6.8265 0.1698 -5.5934 -7.7693 4.1073 12.3019 36.8083 0.0000 0.0000 0.0000 16.6229 -0.5350 -14.6209 -1.6977 -8.2057 23.3405 -1.1221 -5.1410 -22.4835 -0.1318 2.3400 -6.4464 -3.0079 -0.0456 -1.4092 -1.4249 0.0699 2.3794 0.2227 -0.0207 3.2362 -3.8031 -4.1133 2.2064 5.7014 -5.7588 5.0887 2.4215 -2.8762 1.5278 -0.0000 0.0000 0.0000 -77.5844 -4.3271 34.6595 12.0016 -19.8071 -2.1028 -0.0000 0.0000 -12.0195 12.1442 -12.4024 -2.6462 -7.1250 0.0000 -0.0000 -10.4714 17.4291 6.9722 -0.0000 0.0000 0.0000 84.3170 -6.6006 25.8631 -14.5710 23.5452 -3.0525 0.0000 0.0000 0.1596 -5.1963 -36.0520 3.0636 7.1250 -0.0000 -0.0000 34.6245 -62.7825 -15.9393
8.6268 18.3831 4.9567 -1.7406 -3.0966 3.3257 0.0000 0.0000 0.0000 -13.9406 1.8707 -3.8376 0.1450 2.4538 6.7615 0.1655 -5.6276 -7.6986 4.3097 12.5616 37.7487 0.0000 0.0000 0.0000 16.7723 -0.5900 -14.5361 -1.7126 -8.2400 23.4454 -1.1210 -5.2419 -22.5356 -0.1940 2.8368 -7.8247 -3.0568 0.0202 -1.4805 -1.4880 0.1625 2.3258 0.1891 0.0257 3.2188 -3.7740 -3.8896 2.0101 5.8487 -5.4718 5.3395 2.4644 -2.7259 1.6323 0.0000 -0.0000 0.0000 -77.5051 -4.1155 34.2633 11.9302 -19.6999 -2.0787 -0.0000 0.0000 -11.7154 12.2458 -12.1266 -2.6106 -7.1250 0.0000 -0.0000 -10.4083 17.6996 6.8658 0.0000 -0.0000 0.0000 84.4551 -6.8079 25.7380 -14.5798 23.5576 -3.0560 0.0000 0.0000 0.1942 -5.7270 -35.8153 3.3587 7.1250 -0.0000 -0.0000 33.8130 -62.7276 -15.4757
8.6287 18.3821 4.9699 -1.6994 -3.1397 3.2677 0.0000 0.0000 0.0000 -14.0090 1.8841 -3.6301 0.1382 2.3962 6.6021 0.1680 -5.5358 -7.7201 4.3607 12.6256 37.9825 0.0000 0.0000 0.0000 16.8169 -0.6837 -14.3527 -1.7554 -8.3368 23.7419 -1.1675 -4.9169 -22.7338 -0.1384 2.3980 -6.6071 -3.1694 0.0379 -1.6066 -1.5358 0.1957 2.2951 0.2045 0.0399 3.2576 -3.6359 -3.6553 1.8300 5.7659 -5.1552 5.4697 2.4127 -2.5626 1.6813 -0.0000 0.0000 0.0000 -77.5038 -4.0114 33.6791 11.6788 -19.3212 -1.9947 -0.0000 0.0000 -11.1214 12.2777 -12.6334 -2.7251 -7.1250 0.0000 -0.0000 -10.3736 17.1890 6.9604 -0.0000 0.0000 0.0000 84.4867 -6.9277 25.7590 -14.5642 23.5355 -3.0498 0.0000 0.0000 0.2932 -6.0310 -35.4909 3.5100 7.1250 -0.0000 -0.0000 33.1336 -62.5401 -14.9816
8.6295 18.3806 4.9860 -1.8341 -3.2111 3.2041 0.0000 0.0000 0.0000 -13.8384 1.9746 -3.3921 0.1309 2.3323 6.4250 0.1807 -5.3379 -7.8987 4.1161 12.3134 36.8498 0.0000 0.0000 0.0000 17.0929 -0.7051 -14.0629 -1.7634 -8.3549 23.7972 -1.1831 -4.8333 -22.8153 -0.1150 2.1859 -6.0197 -3.1178 0.0322 -1.7093 -1.5043 0.1888 2.2487 0.2079 0.0375 3.2678 -3.5663 -3.6134 1.5782 5.9213 -5.1064 5.5843 2.4481 -2.5299 1.7635 0.0000 -0.0000 0.0000 -77.5318 -3.8773 33.0977 11.4157 -18.9226 -1.9086 -0.0000 0.0000 -10.6479 12.2577 -12.9866 -2.7952 -7.1250 0.0000 -0.0000 -10.3795 16.8360 7.0459 0.0000 -0.0000 0.0000 84.4150 -7.0555 25.9590 -14.5868 23.5674 -3.0588 0.0000 0.0000 0.3850 -5.7537 -35.7590 3.3698 7.1250 -0.0000 -0.0000 33.7206 -62.6884 -15.3973
8.6298 18.3817 5.0002 -1.9995 -3.2764 3.1708 0.0000 0.0000 0.0000 -13.6197 2.0651 -3.2128 0.1255 2.2839 6.2909 0.1936 -5.1550 -8.0891 3.8780 11.9963 35.7189 0.0000 0.0000 0.0000 17.4096 -0.6931 -13.7757 -1.7539 -8.3334 23.7315 -1.1714 -4.7457 -22.6667 -0.1028 2.0677 -5.6927 -3.0182 0.0442 -1.7562 -1.4715 0.1996 2.1523 0.1867 0.0465 3.1942 -3.4651 -3.5800 1.0082 6.0894 -5.0817 6.0655 2.4765 -2.4992 2.0232 0.0000 -0.0000 0.0000 -77.4538 -3.5546 33.0906 11.3977 -18.8953 -1.9027 -0.0000 0.0000 -11.0087 12.2714 -12.5589 -2.7079 -7.1250 0.0000 -0.0000 -10.3797 17.2643 6.9472 0.0000 -0.0000 0.0000 84.3846 -7.3842 26.1003 -14.7053 23.7340 -3.1064 0.0000 0.0000 0.2297 -5.8135 -36.0374 3.4279 7.1250 -0.0000 -0.0000 33.9844 -62.9312 -15.7261
8.6323 18.3834 5.0153 -1.9888 -3.2679 3.1089 0.0000 0.0000 0.0000 -13.6568 2.1095 -2.9953 0.1196 2.2293 6.1398 0.1902 -5.1096 -8.0184 4.0679 12.2503 36.6231 0.0000 0.0000 0.0000 17.4829 -0.8354 -13.4682 -1.7361 -8.2933 23.6086 -1.1779 -4.5146 -22.5878 -0.0779 1.8003 -4.9540 -3.0274 0.0681 -1.7954 -1.5164 0.2323 2.0709 0.1474 0.0645 3.1316 -3.0627 -3.5873 0.6348 5.7795 -5.0891 6.4551 2.2936 -2.4896 2.1931 0.0000 -0.0000 0.0000 -77.2801 -3.1766 33.4236 11.4984 -19.0482 -1.9355 -0.0000 0.0000 -11.7138 12.2110 -11.9171 -2.5587 -7.1250 0.0000 -0.0000 -10.4383 17.9120 6.8366 0.0000 -0.0000 0.0000 84.4720 -7.8180 25.9796 -14.8543 23.9427 -3.1666 0.0000 0.0000 0.0033 -6.1544 -35.8583 3.6143 7.1250 -0.0000 -0.0000 33.4298 -62.8736 -15.3936
8.6331 18.3825 5.0353 -1.8950 -3.3082 3.0226 0.0000 0.0000 0.0000 -13.7849 2.2230 -2.7305 0.1125 2.1623 5.9544 0.1833 -5.0634 -7.8816 4.2882 12.5343 37.6494 0.0000 0.0000 0.0000 17.4708 -0.9577 -13.0792 -1.7126 -8.2399 23.4452 -1.1906 -4.4210 -22.6422 -0.0653 1.6493 -4.5375 -3.1090 0.1214 -1.9155 -1.5873 0.3124 2.0336 0.1239 0.1033 3.1590 -2.9292 -3.6041 0.3547 5.7076 -5.1248 6.8840 2.2405 -2.4968 2.3799 0.0000 -0.0000 0.0000 -77.1509 -2.9944 33.4876 11.4282 -18.9417 -1.9126 -0.0000 0.0000 -11.8709 12.0126 -11.5670 -2.4431 -7.1250 0.0000 -0.0000 -10.5866 18.2744 6.8510 0.0000 -0.0000 0.0000 84.5895 -8.1573 25.6641 -14.9722 24.1073 -3.2146 0.0000 0.0000 0.0540 -6.2818 -35.5516 3.6622 7.1250 -0.0000 -0.0000 32.9480 -62.6545 -14.9764
8.6277 18.3785 5.0536 -1.9481 -3.4535 3.0281 0.0000 0.0000 0.0000 -13.6476 2.4004 -2.6142 0.1070 2.1091 5.8072 0.1842 -4.9066 -7.8633 4.2089 12.4333 37.2826 0.0000 0.0000 0.0000 17.7098 -0.8608 -12.7213 -1.6713 -8.1449 23.1550 -1.1414 -4.7115 -22.3926 -0.1086 2.1252 -5.8517 -3.1109 0.2222 -2.1235 -1.6090 0.4544 1.9536 0.1101 0.1745 3.1905 -2.8654 -3.4930 0.4670 5.7199 -4.9822 6.9491 2.2383 -2.4250 2.3724 0.0000 -0.0000 0.0000 -77.0734 -2.9172 33.2565 11.1868 -18.5740 -1.8350 -0.0000 0.0000 -11.4849 11.8170 -11.7952 -2.4489 -7.1250 0.0000 -0.0000 -10.7153 18.0568 6.9897 0.0000 -0.0000 0.0000 84.7192 -8.4124 25.2932 -15.0121 24.1630 -3.2309 0.0000 0.0000 0.1933 -6.4289 -35.4832 3.7421 7.1250 -0.0000 -0.0000 32.7206 -62.6359 -14.8468
8.6178 18.3732 5.0664 -2.0816 -3.5756 3.0984 0.0000 0.0000 0.0000 -13.3479 2.6064 -2.6437 0.1036 2.0751 5.7132 0.1805 -4.8142 -7.7750 4.1225 12.3216 36.8795 0.0000 0.0000 0.0000 17.9968 -0.2439 -12.2128 -1.5320 -7.8145 22.1520 -0.9725 -6.0600 -21.7651 -0.2308 3.0922 -8.5356 -3.0588 0.3089 -2.3559 -1.6071 0.5757 1.8606 0.0901 0.2363 3.2229 -2.8556 -3.2861 0.8518 5.8632 -4.7057 6.6651 2.2957 -2.2933 2.2002 -0.0000 0.0000 0.0000 -76.9892 -2.6915 32.9299 11.1082 -18.4539 -1.8100 -0.0000 0.0000 -11.0865 11.6129 -11.8376 -2.4140 -7.1250 0.0000 -0.0000 -10.8556 18.0259 7.0922 -0.0000 0.0000 0.0000 84.8468 -8.4576 24.9329 -14.9026 24.0102 -3.1862 0.0000 0.0000 0.2316 -6.4589 -35.5912 3.7696 7.1250 -0.0000 -0.0000 32.8129 -62.7328 -14.9682
8.6137 18.3691 5.0852 -2.0797 -3.5976 3.0962 0.0000 0.0000 0.0000 -13.2815 2.8389 -2.5234 0.0964 2.0023 5.5121 0.1733 -4.7962 -7.6352 4.0275 12.1969 36.4320 0.0000 0.0000 0.0000 18.1686 -0.3019 -11.8000 -1.5500 -7.8581 22.2840 -1.0585 -5.5342 -22.1797 -0.1094 2.1325 -5.8720 -3.0399 0.3467 -2.6368 -1.6433 0.6386 1.8439 0.0473 0.2670 3.3634 -3.0909 -3.1413 0.9995 6.2532 -4.5331 6.6305 2.4748 -2.2081 2.1744 0.0000 0.0000 0.0000 -76.9394 -2.3683 32.5926 11.2104 -18.6101 -1.8425 -0.0000 0.0000 -10.8337 11.3118 -11.2940 -2.2434 -7.1250 0.0000 -0.0000 -11.0842 18.5856 7.1074 0.0000 0.0000 0.0000 84.9278 -8.4236 24.5938 -14.7851 23.8458 -3.1385 0.0000 0.0000 0.2535 -6.3057 -35.4836 3.6701 7.1250 -0.0000 -0.0000 32.8464 -62.6046 -14.8863
